<svg width="25" height="24" viewBox="0 0 25 24" fill="none" xmlns="http://www.w3.org/2000/svg">
<path d="M10.125 12.3333C10.125 12.0233 10.125 11.8683 10.1591 11.7412C10.2515 11.3961 10.5211 11.1265 10.8662 11.0341C10.9933 11 11.1483 11 11.4583 11H12.7917C13.1017 11 13.2567 11 13.3838 11.0341C13.7289 11.1265 13.9985 11.3961 14.0909 11.7412C14.125 11.8683 14.125 12.0233 14.125 12.3333V13C14.125 14.1046 13.2296 15 12.125 15C11.0204 15 10.125 14.1046 10.125 13V12.3333Z" stroke="#111110" stroke-width="1.5" stroke-linecap="round" stroke-linejoin="round"/>
<path d="M13.9266 13C14.2382 12.9095 14.5916 12.8005 15.005 12.673L19.1762 11.3866C20.6608 10.9288 21.3874 10.131 21.5454 8.74977C21.6161 8.13198 21.6515 7.82308 21.6018 7.57022C21.4599 6.84864 20.8539 6.26354 20.0463 6.06839C19.7633 6 19.408 6 18.6974 6H5.55257C4.842 6 4.48672 6 4.20371 6.06839C3.39611 6.26354 2.7901 6.84864 2.64823 7.57022C2.59851 7.82308 2.63386 8.13198 2.70456 8.74977C2.86264 10.131 3.58924 10.9288 5.07382 11.3866L9.24496 12.673C9.65836 12.8005 10.0118 12.9095 10.3234 13" stroke="#111110" stroke-width="1.5"/>
<path d="M3.58783 11L3.39158 13.1723C3.03981 17.0662 2.86392 19.0131 3.99234 20.2566C5.12076 21.5 7.06351 21.5 10.949 21.5H13.301C17.1865 21.5 19.1292 21.5 20.2577 20.2566C21.3861 19.0131 21.2102 17.0662 20.8584 13.1723L20.6622 11" stroke="#111110" stroke-width="1.5" stroke-linecap="round" stroke-linejoin="round"/>
<path d="M15.625 5.5L15.5477 5.23509C15.1627 3.91505 14.9702 3.25503 14.5119 2.87752C14.0536 2.5 13.4449 2.5 12.2273 2.5H12.0227C10.8051 2.5 10.1964 2.5 9.73809 2.87752C9.27978 3.25503 9.08728 3.91505 8.70227 5.23509L8.625 5.5" stroke="#111110" stroke-width="1.5"/>
</svg>
