<svg width="17" height="18" viewBox="0 0 17 18" fill="none" xmlns="http://www.w3.org/2000/svg">
<path d="M12.3586 7.00072C12.3636 7.0007 12.3686 7.00069 12.3736 7.00069C14.037 7.00069 15.3854 8.35159 15.3854 10.0181C15.3854 11.5712 14.2142 12.8502 12.7083 13.017M12.3586 7.00072C12.3685 6.89029 12.3736 6.77845 12.3736 6.66542C12.3736 4.62866 10.7255 2.97754 8.69248 2.97754C6.76707 2.97754 5.18692 4.45847 5.02501 6.34539M12.3586 7.00072C12.2902 7.76141 11.9912 8.45547 11.5322 9.01225M5.02501 6.34539C3.32738 6.50723 1.99951 7.93964 1.99951 9.68276C1.99951 11.3047 3.1492 12.6577 4.6767 12.9683M5.02501 6.34539C5.13066 6.33531 5.23772 6.33016 5.346 6.33016C6.0995 6.33016 6.79485 6.57965 7.35422 7.00069" stroke="white" stroke-width="1.00395" stroke-linecap="round" stroke-linejoin="round"/>
<path d="M8.69277 9.6709V15.0253M8.69277 9.6709C8.22413 9.6709 7.34851 11.0057 7.01953 11.3441M8.69277 9.6709C9.16142 9.6709 10.0371 11.0057 10.366 11.3441" stroke="white" stroke-width="1.00395" stroke-linecap="round" stroke-linejoin="round"/>
</svg>
