<svg width="19" height="19" viewBox="0 0 19 19" fill="none" xmlns="http://www.w3.org/2000/svg">
<path d="M11.75 7.08105V11.5811H7.25V7.08105H11.75Z" stroke="#6E6E6E" stroke-width="1.125" stroke-linejoin="round"/>
<path d="M11.75 11.5811H14C15.2427 11.5811 16.25 12.5884 16.25 13.8311C16.25 15.0737 15.2427 16.0811 14 16.0811C12.7573 16.0811 11.75 15.0737 11.75 13.8311V11.5811Z" stroke="#6E6E6E" stroke-width="1.125" stroke-linejoin="round"/>
<path d="M7.25 11.5825H5C3.75736 11.5825 2.75 12.5898 2.75 13.8325C2.75 15.0751 3.75736 16.0825 5 16.0825C6.24264 16.0825 7.25 15.0751 7.25 13.8325V11.5825Z" stroke="#6E6E6E" stroke-width="1.125" stroke-linejoin="round"/>
<path d="M11.75 7.08105V4.83105C11.75 3.58842 12.7573 2.58105 14 2.58105C15.2427 2.58105 16.25 3.58842 16.25 4.83105C16.25 6.07369 15.2427 7.08105 14 7.08105H11.75Z" stroke="#6E6E6E" stroke-width="1.125" stroke-linejoin="round"/>
<path d="M7.25 7.08105V4.83105C7.25 3.58842 6.24264 2.58105 5 2.58105C3.75736 2.58105 2.75 3.58842 2.75 4.83105C2.75 6.07369 3.75736 7.08105 5 7.08105H7.25Z" stroke="#6E6E6E" stroke-width="1.125" stroke-linejoin="round"/>
</svg>
