<svg width="17" height="17" viewBox="0 0 17 17" fill="none" xmlns="http://www.w3.org/2000/svg">
<path d="M15.2363 9.47555C15.1841 10.7287 15.0161 11.497 14.4742 12.0379C13.6887 12.822 12.4245 12.822 9.89596 12.822H7.21409C4.6856 12.822 3.42135 12.822 2.63584 12.0379C1.85034 11.2538 1.85034 9.99171 1.85034 7.46766C1.85034 4.94358 1.85034 3.68154 2.63584 2.89741C3.42135 2.11328 4.6856 2.11328 7.21409 2.11328H7.87401" stroke="#111110" stroke-width="1.00395" stroke-linecap="round"/>
<path d="M8.54321 12.8223V15.4995" stroke="#111110" stroke-width="1.00395"/>
<path d="M5.86621 15.5H11.2206" stroke="#111110" stroke-width="1.00395" stroke-linecap="round"/>
<path d="M7.87402 10.8145H9.21262" stroke="#111110" stroke-width="1.00395" stroke-linecap="round" stroke-linejoin="round"/>
<path d="M15.2363 4.45582V2.78258C13.8978 2.78258 12.8938 2.11328 12.8938 2.11328C12.8938 2.11328 11.8899 2.78258 10.5513 2.78258V4.45582C10.5513 6.79836 12.8938 7.46766 12.8938 7.46766C12.8938 7.46766 15.2363 6.79836 15.2363 4.45582Z" stroke="#111110" stroke-width="1.00395" stroke-linecap="round" stroke-linejoin="round"/>
</svg>
