<svg width="15" height="15" viewBox="0 0 15 15" fill="none" xmlns="http://www.w3.org/2000/svg">
<path d="M1.65479 7.61275C1.65479 5.47374 1.65479 4.40423 2.29138 3.6902C2.3932 3.57599 2.50542 3.47037 2.62677 3.37454C3.38543 2.77539 4.52178 2.77539 6.79448 2.77539H8.60849C10.8812 2.77539 12.0176 2.77539 12.7762 3.37454C12.8975 3.47037 13.0098 3.57599 13.1116 3.6902C13.7482 4.40423 13.7482 5.47374 13.7482 7.61275C13.7482 9.75177 13.7482 10.8212 13.1116 11.5353C13.0098 11.6495 12.8975 11.7551 12.7762 11.8509C12.0176 12.4501 10.8812 12.4501 8.60849 12.4501H6.79448C4.52178 12.4501 3.38543 12.4501 2.62677 11.8509C2.50542 11.7551 2.3932 11.6495 2.29138 11.5353C1.65479 10.8212 1.65479 9.75177 1.65479 7.61275Z" stroke="#6B7480" stroke-width="0.907005" stroke-linecap="round" stroke-linejoin="round"/>
<path d="M6.49219 10.0314H7.39919" stroke="#6B7480" stroke-width="0.907005" stroke-miterlimit="10" stroke-linecap="round" stroke-linejoin="round"/>
<path d="M9.21289 10.0314H11.3292" stroke="#6B7480" stroke-width="0.907005" stroke-miterlimit="10" stroke-linecap="round" stroke-linejoin="round"/>
<path d="M1.65479 5.79877H13.7482" stroke="#6B7480" stroke-width="0.907005" stroke-linejoin="round"/>
</svg>
