<svg width="17" height="17" viewBox="0 0 17 17" fill="none" xmlns="http://www.w3.org/2000/svg">
<path d="M3.33838 9.1991V10.2331C3.33838 12.4061 3.33838 13.4926 3.93142 14.2285C4.05123 14.3771 4.18659 14.5126 4.33518 14.6324C5.07073 15.2258 6.15667 15.2258 8.32852 15.2258C8.80078 15.2258 9.03684 15.2258 9.25309 15.1494C9.29807 15.1336 9.34211 15.1153 9.38514 15.0947C9.59202 14.9957 9.75894 14.8287 10.0929 14.4946L13.263 11.3228C13.6499 10.9358 13.8433 10.7422 13.9453 10.4961C14.0471 10.25 14.0471 9.97629 14.0471 9.42887V7.19016C14.0471 4.66481 14.0471 3.40214 13.263 2.61761C12.6397 1.99393 11.7142 1.86606 10.0929 1.83984M9.36205 14.8909V14.5561C9.36205 12.6621 9.36205 11.7151 9.95016 11.1267C10.5383 10.5384 11.4848 10.5384 13.3778 10.5384H13.7125" stroke="#111110" stroke-width="1.00395" stroke-linecap="round" stroke-linejoin="round"/>
<path d="M6.01557 7.04211C7.19842 7.04211 8.15732 6.06142 8.15732 4.85168C8.15732 3.64194 7.19842 2.66125 6.01557 2.66125M6.01557 7.04211C4.83271 7.04211 3.87382 6.06142 3.87382 4.85168C3.87382 3.64194 4.83271 2.66125 6.01557 2.66125M6.01557 7.04211V7.86351M6.01557 2.66125V1.83984M4.06878 3.6569L3.33868 3.20886M8.69275 6.4945L7.96268 6.04645M7.96235 3.6569L8.69249 3.20886M3.33838 6.4945L4.06848 6.04645" stroke="#111110" stroke-width="1.00395" stroke-linecap="round"/>
</svg>
