<svg width="18" height="17" viewBox="0 0 18 17" fill="none" xmlns="http://www.w3.org/2000/svg">
<path d="M10.8155 15.4334C9.87082 15.4769 8.91118 15.4997 7.85443 15.4997C6.79764 15.4997 5.83801 15.4769 4.89333 15.4334C3.77065 15.3816 2.84809 14.5058 2.69813 13.3879C2.60026 12.6583 2.51953 11.9106 2.51953 11.1493C2.51953 10.3879 2.60025 9.64019 2.69813 8.91066C2.84809 7.79273 3.77065 6.91695 4.89333 6.86515C5.83801 6.82156 6.79764 6.79883 7.85443 6.79883C8.91118 6.79883 9.87082 6.82156 10.8155 6.86515C11.5246 6.89787 12.1538 7.25928 12.559 7.80277" stroke="#111110" stroke-width="1.00395" stroke-linecap="round"/>
<path d="M15.8174 8.34674L16.2808 8.81016C16.6729 9.20223 16.6729 9.83787 16.2808 10.2299L13.853 12.7035C13.662 12.8944 13.4177 13.0232 13.1522 13.0728L11.6476 13.3994C11.41 13.451 11.1984 13.24 11.2493 13.0023L11.5696 11.5062C11.6192 11.2407 11.7479 10.9964 11.9389 10.8055L14.3976 8.34674C14.7897 7.95473 15.4254 7.95473 15.8174 8.34674Z" stroke="#111110" stroke-width="1.00395" stroke-linecap="round" stroke-linejoin="round"/>
<path d="M4.86206 6.79836V5.12512C4.86206 3.46173 6.21051 2.11328 7.8739 2.11328C9.5373 2.11328 10.8857 3.46173 10.8857 5.12512V6.79836" stroke="#111110" stroke-width="1.00395" stroke-linecap="round" stroke-linejoin="round"/>
<path d="M8.54321 11.1426V11.1493" stroke="#111110" stroke-width="1.33859" stroke-linecap="round" stroke-linejoin="round"/>
<path d="M5.86621 11.1426V11.1493" stroke="#111110" stroke-width="1.33859" stroke-linecap="round" stroke-linejoin="round"/>
</svg>
