<svg width="14" height="11" viewBox="0 0 14 11" fill="none" xmlns="http://www.w3.org/2000/svg">
<path d="M0.654785 5.61275C0.654785 3.47374 0.654785 2.40423 1.29138 1.6902C1.3932 1.57599 1.50542 1.47037 1.62677 1.37454C2.38543 0.775391 3.52178 0.775391 5.79448 0.775391H7.60849C9.8812 0.775391 11.0176 0.775391 11.7762 1.37454C11.8975 1.47037 12.0098 1.57599 12.1116 1.6902C12.7482 2.40423 12.7482 3.47374 12.7482 5.61275C12.7482 7.75177 12.7482 8.82125 12.1116 9.5353C12.0098 9.64952 11.8975 9.7551 11.7762 9.85094C11.0176 10.4501 9.8812 10.4501 7.60849 10.4501H5.79448C3.52178 10.4501 2.38543 10.4501 1.62677 9.85094C1.50542 9.7551 1.3932 9.64952 1.29138 9.5353C0.654785 8.82125 0.654785 7.75177 0.654785 5.61275Z" stroke="#6B7480" stroke-width="0.907005" stroke-linecap="round" stroke-linejoin="round"/>
</svg>
