<svg width="22" height="22" viewBox="0 0 22 22" fill="none" xmlns="http://www.w3.org/2000/svg">
<path d="M12.9452 14.1269H12.9533M8.48633 14.1269H8.49434" stroke="#6B7480" stroke-width="1.78678" stroke-linecap="round" stroke-linejoin="round"/>
<path d="M3.81348 17.115C4.01438 18.6072 5.25034 19.7762 6.75439 19.8454C8.01998 19.9035 9.3056 19.9339 10.7214 19.9339C12.1371 19.9339 13.4227 19.9035 14.6883 19.8454C16.1924 19.7762 17.4283 18.6072 17.6292 17.115C17.7604 16.1412 17.8685 15.1432 17.8685 14.1269C17.8685 13.1105 17.7604 12.1125 17.6292 11.1387C17.4283 9.64651 16.1924 8.4775 14.6883 8.40835C13.4227 8.35017 12.1371 8.31982 10.7214 8.31982C9.3056 8.31982 8.01998 8.35017 6.75439 8.40835C5.25034 8.4775 4.01438 9.64651 3.81348 11.1387C3.68236 12.1125 3.57422 13.1105 3.57422 14.1269C3.57422 15.1432 3.68236 16.1412 3.81348 17.115Z" stroke="#6B7480" stroke-width="1.34009"/>
<path d="M6.70117 8.31981V6.08633C6.70117 3.86601 8.50111 2.06607 10.7214 2.06607C12.9418 2.06607 14.7417 3.86601 14.7417 6.08633V8.31981" stroke="#6B7480" stroke-width="1.34009" stroke-linecap="round" stroke-linejoin="round"/>
</svg>
