<svg width="17" height="17" viewBox="0 0 17 17" fill="none" xmlns="http://www.w3.org/2000/svg">
<path d="M5.19824 5.96289L7.16733 7.12709C8.31532 7.8058 8.77413 7.8058 9.92211 7.12709L11.8912 5.96289" stroke="#111110" stroke-width="1.00395" stroke-linecap="round" stroke-linejoin="round"/>
<path d="M15.2346 7.96961V7.31935C15.1909 5.26641 15.169 4.23995 14.4115 3.47957C13.654 2.71919 12.5998 2.6927 10.4913 2.63972C9.19189 2.60708 7.90516 2.60707 6.60566 2.63972C4.49722 2.69269 3.44299 2.71918 2.68551 3.47956C1.92803 4.23994 1.90614 5.26641 1.86236 7.31934C1.84829 7.97945 1.84829 8.63563 1.86236 9.29575C1.90615 11.3487 1.92803 12.3751 2.68552 13.1355C3.44299 13.8959 4.49722 13.9224 6.60567 13.9753C6.91907 13.9832 7.56322 13.9892 7.87551 13.9933" stroke="#111110" stroke-width="1.00395" stroke-linecap="round" stroke-linejoin="round"/>
<path d="M14.4695 9.93854L14.9329 10.402C15.325 10.794 15.325 11.4297 14.9329 11.8217L12.5051 14.2953C12.3141 14.4862 12.0698 14.615 11.8043 14.6646L10.2997 14.9912C10.0621 15.0428 9.85051 14.8318 9.90144 14.5941L10.2217 13.098C10.2713 12.8325 10.4 12.5882 10.591 12.3973L13.0497 9.93854C13.4418 9.54653 14.0775 9.54653 14.4695 9.93854Z" stroke="#111110" stroke-width="1.00395" stroke-linecap="round" stroke-linejoin="round"/>
</svg>
