<svg width="25" height="24" viewBox="0 0 25 24" fill="none" xmlns="http://www.w3.org/2000/svg">
<path d="M5.74902 16L10.749 13M14.749 11L19.749 8M12.749 5V10M12.749 14V19M5.74902 8L10.749 11M14.749 13L19.749 16" stroke="white" stroke-width="1.5" stroke-linejoin="round"/>
<path d="M21.249 9.00001V14.5M14.249 20.5L19.749 17.5M5.24902 17.5L11.249 20.5M4.24902 15V9.00001M5.24902 6.5L11.249 3.5M20.249 6.5L14.249 3.5" stroke="white" stroke-width="1.5" stroke-linejoin="round"/>
<path d="M12.749 5C13.5775 5 14.249 4.32843 14.249 3.5C14.249 2.67157 13.5775 2 12.749 2C11.9206 2 11.249 2.67157 11.249 3.5C11.249 4.32843 11.9206 5 12.749 5Z" stroke="white" stroke-width="1.5" stroke-linejoin="round"/>
<path d="M12.749 22C13.5775 22 14.249 21.3284 14.249 20.5C14.249 19.6716 13.5775 19 12.749 19C11.9206 19 11.249 19.6716 11.249 20.5C11.249 21.3284 11.9206 22 12.749 22Z" stroke="white" stroke-width="1.5" stroke-linejoin="round"/>
<path d="M4.24902 9C5.07745 9 5.74902 8.32843 5.74902 7.5C5.74902 6.67157 5.07745 6 4.24902 6C3.4206 6 2.74902 6.67157 2.74902 7.5C2.74902 8.32843 3.4206 9 4.24902 9Z" stroke="white" stroke-width="1.5" stroke-linejoin="round"/>
<path d="M21.249 9C22.0775 9 22.749 8.32843 22.749 7.5C22.749 6.67157 22.0775 6 21.249 6C20.4206 6 19.749 6.67157 19.749 7.5C19.749 8.32843 20.4206 9 21.249 9Z" stroke="white" stroke-width="1.5" stroke-linejoin="round"/>
<path d="M21.249 18C22.0775 18 22.749 17.3284 22.749 16.5C22.749 15.6716 22.0775 15 21.249 15C20.4206 15 19.749 15.6716 19.749 16.5C19.749 17.3284 20.4206 18 21.249 18Z" stroke="white" stroke-width="1.5" stroke-linejoin="round"/>
<path d="M4.24902 18C5.07745 18 5.74902 17.3284 5.74902 16.5C5.74902 15.6716 5.07745 15 4.24902 15C3.4206 15 2.74902 15.6716 2.74902 16.5C2.74902 17.3284 3.4206 18 4.24902 18Z" stroke="white" stroke-width="1.5" stroke-linejoin="round"/>
<path d="M12.749 9.75L14.749 10.875V13.125L12.749 14.25L10.749 13.125V10.875L12.749 9.75Z" stroke="white" stroke-width="1.5" stroke-linejoin="round"/>
</svg>
