<svg width="25" height="24" viewBox="0 0 25 24" fill="none" xmlns="http://www.w3.org/2000/svg">
<path d="M4.91602 10.2653V6H19.916V10.2653C19.916 13.4401 19.916 15.0275 18.9397 16.0137C17.9634 17 16.392 17 13.2493 17H11.5827C8.43999 17 6.86864 17 5.89233 16.0137C4.91602 15.0275 4.91602 13.4401 4.91602 10.2653Z" stroke="white" stroke-width="1.5" stroke-linecap="round" stroke-linejoin="round"/>
<path d="M4.91602 6L5.63717 4.46154C6.19647 3.26838 6.47611 2.6718 7.04294 2.3359C7.60977 2 8.33686 2 9.79102 2H15.041C16.4952 2 17.2222 2 17.7891 2.3359C18.3559 2.6718 18.6356 3.26838 19.1948 4.46154L19.916 6" stroke="white" stroke-width="1.5" stroke-linecap="round"/>
<path d="M10.916 9H13.916" stroke="white" stroke-width="1.5" stroke-linecap="round"/>
<path d="M12.416 19.5V22M12.416 19.5H7.41602M12.416 19.5H17.416M7.41602 19.5H4.91602C3.53531 19.5 2.41602 20.6193 2.41602 22M7.41602 19.5V22M17.416 19.5H19.916C21.2967 19.5 22.416 20.6193 22.416 22M17.416 19.5V22" stroke="white" stroke-width="1.5" stroke-linecap="round" stroke-linejoin="round"/>
</svg>
