<svg width="25" height="24" viewBox="0 0 25 24" fill="none" xmlns="http://www.w3.org/2000/svg">
<path d="M21.7467 12.5032C21.7467 12.5032 21.749 12.0338 21.749 11.5029C21.749 7.02321 21.749 4.78334 20.3578 3.39167C18.9665 2 16.7273 2 12.249 2C7.77068 2 5.53151 2 4.14026 3.39167C2.74902 4.78334 2.74902 7.02321 2.74902 11.5029C2.74902 15.9827 2.74902 18.2225 4.14026 19.6142C5.30687 20.7812 7.06969 20.9696 10.249 21" stroke="white" stroke-width="1.5" stroke-linecap="round"/>
<path d="M2.74902 7H21.749" stroke="white" stroke-width="1.5" stroke-linejoin="round"/>
<path d="M6.74902 16H7.74902M10.749 12H15.749M6.74902 12H7.74902" stroke="white" stroke-width="1.5" stroke-linecap="round" stroke-linejoin="round"/>
<path d="M17.749 18.5H17.758" stroke="white" stroke-width="2" stroke-linecap="round" stroke-linejoin="round"/>
<path d="M22.521 18.0225C22.673 18.2357 22.749 18.3422 22.749 18.5C22.749 18.6578 22.673 18.7643 22.521 18.9775C21.838 19.9353 20.0936 22 17.749 22C15.4044 22 13.66 19.9353 12.977 18.9775C12.825 18.7643 12.749 18.6578 12.749 18.5C12.749 18.3422 12.825 18.2357 12.977 18.0225C13.66 17.0647 15.4044 15 17.749 15C20.0936 15 21.838 17.0647 22.521 18.0225Z" stroke="white" stroke-width="1.5"/>
</svg>
