<svg width="17" height="17" viewBox="0 0 17 17" fill="none" xmlns="http://www.w3.org/2000/svg">
<path d="M12.3542 1.58337C13.7973 1.58337 15.0208 2.79327 15.0208 4.2611C15.0208 5.75231 13.7774 6.79879 12.6288 7.51037C12.5451 7.55824 12.4505 7.58337 12.3542 7.58337C12.2578 7.58337 12.1632 7.55824 12.0795 7.51037C10.9331 6.79184 9.6875 5.75747 9.6875 4.2611C9.6875 2.79327 10.911 1.58337 12.3542 1.58337Z" stroke="#1C70F7"/>
<path d="M12.3545 4.25H12.3605" stroke="#1C70F7" stroke-width="1.33333" stroke-linecap="round" stroke-linejoin="round"/>
<path d="M3.6875 14.9166C4.79207 14.9166 5.6875 14.0212 5.6875 12.9166C5.6875 11.8121 4.79207 10.9166 3.6875 10.9166C2.58293 10.9166 1.6875 11.8121 1.6875 12.9166C1.6875 14.0212 2.58293 14.9166 3.6875 14.9166Z" stroke="#1C70F7" stroke-linecap="round" stroke-linejoin="round"/>
<path d="M7.68783 4.91663H6.68783C5.39916 4.91663 4.35449 5.81206 4.35449 6.91663C4.35449 8.02123 5.39916 8.91663 6.68783 8.91663H8.68783C9.97649 8.91663 11.0212 9.81203 11.0212 10.9166C11.0212 12.0212 9.97649 12.9166 8.68783 12.9166H7.68783" stroke="#1C70F7" stroke-linecap="round" stroke-linejoin="round"/>
</svg>
