<svg width="25" height="24" viewBox="0 0 25 24" fill="none" xmlns="http://www.w3.org/2000/svg">
<path d="M12.083 22C17.6059 22 22.083 17.5228 22.083 12C22.083 6.47715 17.6059 2 12.083 2C6.56016 2 2.08301 6.47715 2.08301 12C2.08301 17.5228 6.56016 22 12.083 22Z" stroke="white" stroke-width="1.5"/>
<path d="M16.083 10L17.3095 11.0572C17.8252 11.5016 18.083 11.7239 18.083 12C18.083 12.2761 17.8252 12.4984 17.3095 12.9428L16.083 14" stroke="white" stroke-width="1.5" stroke-linecap="round" stroke-linejoin="round"/>
<path d="M8.08301 10L6.85647 11.0572C6.34083 11.5016 6.08301 11.7239 6.08301 12C6.08301 12.2761 6.34083 12.4984 6.85647 12.9428L8.08301 14" stroke="white" stroke-width="1.5" stroke-linecap="round" stroke-linejoin="round"/>
<path d="M13.083 9L11.083 15" stroke="white" stroke-width="1.5" stroke-linecap="round" stroke-linejoin="round"/>
</svg>
