<svg width="25" height="24" viewBox="0 0 25 24" fill="none" xmlns="http://www.w3.org/2000/svg">
<path d="M14.916 8C14.916 5.23858 12.6774 3 9.91602 3C7.1546 3 4.91602 5.23858 4.91602 8C4.91602 10.7614 7.1546 13 9.91602 13C12.6774 13 14.916 10.7614 14.916 8Z" stroke="white" stroke-width="1.5" stroke-linecap="round" stroke-linejoin="round"/>
<path d="M2.91602 20C2.91602 16.134 6.05003 13 9.91602 13C11.191 13 12.3864 13.3409 13.416 13.9365" stroke="white" stroke-width="1.5" stroke-linecap="round" stroke-linejoin="round"/>
<path d="M15.916 14.8462C15.916 13.8266 16.8114 13 17.916 13C19.0206 13 19.916 13.8266 19.916 14.8462C19.916 15.2137 19.7997 15.5561 19.5991 15.8438C19.0014 16.7012 17.916 17.0189 17.916 18.0385V18.5M17.9062 21H17.9152" stroke="white" stroke-width="1.5" stroke-linecap="round" stroke-linejoin="round"/>
</svg>
