<svg width="25" height="24" viewBox="0 0 25 24" fill="none" xmlns="http://www.w3.org/2000/svg">
<path d="M15.625 11C15.625 9.067 14.058 7.5 12.125 7.5C10.192 7.5 8.625 9.067 8.625 11C8.625 12.933 10.192 14.5 12.125 14.5C14.058 14.5 15.625 12.933 15.625 11Z" stroke="#111110" stroke-width="1.5" stroke-linecap="round" stroke-linejoin="round"/>
<path d="M15.6075 11.3499C15.9295 11.4475 16.271 11.5 16.6248 11.5C18.5578 11.5 20.1248 9.933 20.1248 8C20.1248 6.067 18.5578 4.5 16.6248 4.5C14.8099 4.5 13.3176 5.8814 13.1421 7.65013" stroke="#111110" stroke-width="1.5" stroke-linecap="round" stroke-linejoin="round"/>
<path d="M11.1077 7.65013C10.9322 5.8814 9.43992 4.5 7.625 4.5C5.692 4.5 4.125 6.067 4.125 8C4.125 9.933 5.692 11.5 7.625 11.5C7.97881 11.5 8.32035 11.4475 8.64227 11.3499" stroke="#111110" stroke-width="1.5" stroke-linecap="round" stroke-linejoin="round"/>
<path d="M22.125 16.5C22.125 13.7386 19.6626 11.5 16.625 11.5" stroke="#111110" stroke-width="1.5" stroke-linecap="round" stroke-linejoin="round"/>
<path d="M17.625 19.5C17.625 16.7386 15.1626 14.5 12.125 14.5C9.08743 14.5 6.625 16.7386 6.625 19.5" stroke="#111110" stroke-width="1.5" stroke-linecap="round" stroke-linejoin="round"/>
<path d="M7.625 11.5C4.58743 11.5 2.125 13.7386 2.125 16.5" stroke="#111110" stroke-width="1.5" stroke-linecap="round" stroke-linejoin="round"/>
</svg>
