<svg width="17" height="16" viewBox="0 0 17 16" fill="none" xmlns="http://www.w3.org/2000/svg">
<path d="M11.584 11.3333C10.6635 11.3333 9.91732 10.5871 9.91732 9.66667C9.91732 8.7462 10.6635 8 11.584 8C12.5045 8 13.2507 8.7462 13.2507 9.66667C13.2507 10.5871 12.5045 11.3333 11.584 11.3333ZM11.584 11.3333C13.2409 11.3333 14.584 12.6765 14.584 14.3333M11.584 11.3333C9.92712 11.3333 8.58398 12.6765 8.58398 14.3333" stroke="#1C70F7" stroke-linecap="round" stroke-linejoin="round"/>
<path d="M4.91797 5.00008C3.9975 5.00008 3.2513 4.25389 3.2513 3.33341C3.2513 2.41294 3.9975 1.66675 4.91797 1.66675C5.83844 1.66675 6.58464 2.41294 6.58464 3.33341C6.58464 4.25389 5.83844 5.00008 4.91797 5.00008ZM4.91797 5.00008C6.57482 5.00008 7.91797 6.34323 7.91797 8.00008M4.91797 5.00008C3.26112 5.00008 1.91797 6.34323 1.91797 8.00008" stroke="#1C70F7" stroke-linecap="round" stroke-linejoin="round"/>
<path d="M2.58398 10.3333C2.58398 12.1761 4.07446 13.6666 5.91732 13.6666L5.58398 12.3333" stroke="#1C70F7" stroke-linecap="round" stroke-linejoin="round"/>
<path d="M12.5843 5.66659C12.5843 3.82373 11.0938 2.33325 9.25098 2.33325L9.58431 3.66659" stroke="#1C70F7" stroke-linecap="round" stroke-linejoin="round"/>
</svg>
