<svg width="15" height="14" viewBox="0 0 15 14" fill="none" xmlns="http://www.w3.org/2000/svg">
<path d="M6.75 9.95605H6.375V12.8088C6.375 13.0972 6.14115 13.3311 5.85274 13.3311C5.70751 13.3311 5.56885 13.2706 5.47003 13.1642L1.00517 8.35585C0.841155 8.17923 0.75 7.9471 0.75 7.70605C0.75 7.465 0.841155 7.23288 1.00517 7.05625L5.47003 2.24793C5.56885 2.1415 5.70751 2.08105 5.85274 2.08105C6.14115 2.08105 6.375 2.31491 6.375 2.60328V5.45605C10.5408 5.45605 12.7898 2.4439 13.356 1.56753C13.4495 1.42285 13.6072 1.33105 13.7794 1.33105C14.0393 1.33105 14.25 1.54173 14.25 1.80168V2.45605C14.25 6.59815 10.8921 9.95605 6.75 9.95605Z" stroke="#6E6E6E" stroke-width="1.125" stroke-linejoin="round"/>
</svg>
