<svg width="17" height="18" viewBox="0 0 17 18" fill="none" xmlns="http://www.w3.org/2000/svg">
<path fill-rule="evenodd" clip-rule="evenodd" d="M2.94946 5.01675C3.00253 4.56315 3.22026 4.14481 3.56134 3.8411C3.90241 3.5374 4.3431 3.36946 4.7998 3.36914H11.9163C12.0369 3.36904 12.1535 3.41284 12.2442 3.49236L14.0727 5.09824C14.4841 5.45929 14.7113 5.98597 14.6914 6.53253L14.4635 12.8752C14.4465 13.3467 14.2473 13.7932 13.9078 14.1208C13.5682 14.4484 13.1148 14.6314 12.643 14.6315H4.68717C4.26129 14.6318 3.84991 14.4767 3.53022 14.1953C3.21054 13.9139 3.00451 13.5256 2.95079 13.1031C2.62139 10.5338 2.60716 7.93396 2.90839 5.36125L2.94946 5.01675ZM4.80046 4.36287C4.35858 4.36287 3.98692 4.69412 3.93591 5.13202L3.89616 5.47652C3.6045 7.96908 3.61785 10.4879 3.93591 12.9772C3.98493 13.3548 4.3069 13.6377 4.68717 13.6377H5.10918V10.8221C5.10918 10.1822 5.62857 9.66279 6.26853 9.66279H10.906C11.5459 9.66279 12.0653 10.1822 12.0653 10.8221V13.6377H12.6437C12.8582 13.6379 13.0645 13.5547 13.2189 13.4058C13.3734 13.2569 13.4641 13.0538 13.4718 12.8394L13.699 6.49742C13.7035 6.37462 13.6807 6.25235 13.6321 6.13949C13.5835 6.02662 13.5104 5.92598 13.4181 5.84486L11.7341 4.36619V5.91972C11.7341 6.2272 11.6119 6.52209 11.3945 6.73951C11.1771 6.95693 10.8822 7.07908 10.5747 7.07908H6.59978C6.2923 7.07908 5.99741 6.95693 5.77999 6.73951C5.56257 6.52209 5.44042 6.2272 5.44042 5.91972V4.36287H4.80046ZM6.43416 4.36287V5.91972C6.43416 6.01115 6.50836 6.08535 6.59978 6.08535H10.5747C10.6186 6.08535 10.6608 6.0679 10.6918 6.03684C10.7229 6.00578 10.7403 5.96365 10.7403 5.91972V4.36287H6.43416ZM11.0716 13.6377H6.10291V10.8221C6.10291 10.7782 6.12036 10.7361 6.15142 10.705C6.18248 10.674 6.22461 10.6565 6.26853 10.6565H10.906C10.9499 10.6565 10.992 10.674 11.0231 10.705C11.0541 10.7361 11.0716 10.7782 11.0716 10.8221V13.6377Z" fill="white"/>
</svg>
