<svg width="17" height="16" viewBox="0 0 17 16" fill="none" xmlns="http://www.w3.org/2000/svg">
<path d="M2.35449 3.33325C2.35449 2.39045 2.35449 1.91904 2.64739 1.62615C2.94028 1.33325 3.41169 1.33325 4.35449 1.33325C5.2973 1.33325 5.76871 1.33325 6.0616 1.62615C6.35449 1.91904 6.35449 2.39045 6.35449 3.33325C6.35449 4.27606 6.35449 4.74747 6.0616 5.04036C5.76871 5.33325 5.2973 5.33325 4.35449 5.33325C3.41169 5.33325 2.94028 5.33325 2.64739 5.04036C2.35449 4.74747 2.35449 4.27606 2.35449 3.33325Z" stroke="#1C70F7"/>
<path d="M2.35449 12.6667C2.35449 11.7239 2.35449 11.2525 2.64739 10.9596C2.94028 10.6667 3.41169 10.6667 4.35449 10.6667C5.2973 10.6667 5.76871 10.6667 6.0616 10.9596C6.35449 11.2525 6.35449 11.7239 6.35449 12.6667C6.35449 13.6095 6.35449 14.0809 6.0616 14.3739C5.76871 14.6667 5.2973 14.6667 4.35449 14.6667C3.41169 14.6667 2.94028 14.6667 2.64739 14.3739C2.35449 14.0809 2.35449 13.6095 2.35449 12.6667Z" stroke="#1C70F7"/>
<path d="M10.3545 4.66675C10.3545 3.72394 10.3545 3.25253 10.6474 2.95964C10.9403 2.66675 11.4117 2.66675 12.3545 2.66675C13.2973 2.66675 13.7687 2.66675 14.0616 2.95964C14.3545 3.25253 14.3545 3.72394 14.3545 4.66675C14.3545 5.60955 14.3545 6.08096 14.0616 6.37386C13.7687 6.66675 13.2973 6.66675 12.3545 6.66675C11.4117 6.66675 10.9403 6.66675 10.6474 6.37386C10.3545 6.08096 10.3545 5.60955 10.3545 4.66675Z" stroke="#1C70F7"/>
<path d="M4.35449 10.6666V5.33325" stroke="#1C70F7" stroke-linecap="round" stroke-linejoin="round"/>
<path d="M12.3545 6.66675C12.3545 7.77135 11.4591 8.66675 10.3545 8.66675H6.35449C5.24993 8.66675 4.35449 9.56215 4.35449 10.6667" stroke="#1C70F7" stroke-linecap="round" stroke-linejoin="round"/>
</svg>
